<?xml version="1.0" encoding="UTF-8"?>
<svg xmlns="http://www.w3.org/2000/svg" xmlns:xlink="http://www.w3.org/1999/xlink" width="25px" height="25px" viewBox="0 0 25 25" version="1.1">
<g id="surface1">
<path style="fill:none;stroke-width:2;stroke-linecap:round;stroke-linejoin:round;stroke:rgb(0%,0%,0%);stroke-opacity:1;stroke-miterlimit:4;" d="M 7.99875 12 L 10.99875 15 L 16.00125 9 M 4.00125 16.8 L 4.00125 7.2 C 4.00125 6.07875 4.00125 5.52 4.21875 5.0925 C 4.41 4.71375 4.71375 4.41 5.0925 4.21875 C 5.52 4.00125 6.07875 4.00125 7.2 4.00125 L 16.8 4.00125 C 17.92125 4.00125 18.48 4.00125 18.9075 4.21875 C 19.2825 4.41 19.59 4.71375 19.78125 5.0925 C 19.99875 5.52 19.99875 6.07875 19.99875 7.19625 L 19.99875 16.80375 C 19.99875 17.92125 19.99875 18.48 19.78125 18.9075 C 19.59 19.2825 19.2825 19.59 18.9075 19.78125 C 18.48 19.99875 17.92125 19.99875 16.80375 19.99875 L 7.19625 19.99875 C 6.07875 19.99875 5.52 19.99875 5.0925 19.78125 C 4.71375 19.59 4.41 19.2825 4.21875 18.9075 C 4.00125 18.48 4.00125 17.92125 4.00125 16.8 Z M 4.00125 16.8 " transform="matrix(1.041667,0,0,1.041667,0,0)"/>
</g>
</svg>
